<?xml version="1.0" encoding="utf-8"?>
<!-- Generator: Adobe Illustrator 15.1.0, SVG Export Plug-In . SVG Version: 6.00 Build 0)  -->
<!DOCTYPE svg PUBLIC "-//W3C//DTD SVG 1.1//EN" "http://www.w3.org/Graphics/SVG/1.1/DTD/svg11.dtd">
<svg version="1.1" id="Layer_1" xmlns="http://www.w3.org/2000/svg" xmlns:xlink="http://www.w3.org/1999/xlink" x="0px" y="0px"
	 width="682.293px" height="123.789px" viewBox="0 0 682.293 123.789" enable-background="new 0 0 682.293 123.789"
	 xml:space="preserve">
<g>
	<path fill="#575757" d="M58.862,111.035c-6.778,8.504-17.154,12.754-31.125,12.754c-7.492,0-13.988-2.721-19.487-8.161
		C2.75,110.188,0,103.426,0,95.339c0-9.69,4.236-17.881,12.709-24.57s19.278-10.033,32.419-10.033c3.567,0,7.609,0.773,12.129,2.318
		c0-15.458-6.898-23.188-20.691-23.188c-10.584,0-18.729,2.854-24.437,8.561l-7.135-14.18c3.211-2.615,7.655-4.861,13.333-6.733
		c5.677-1.873,11.104-2.81,16.276-2.81c13.853,0,23.916,3.152,30.189,9.453c6.272,6.303,9.409,16.321,9.409,30.057V98.46
		c0,8.384,2.497,13.973,7.491,16.767v8.473c-6.897,0-12.055-0.98-15.474-2.942C62.8,118.795,60.348,115.555,58.862,111.035z
		 M57.257,75.094c-5.351-1.188-9.097-1.784-11.237-1.784c-8.562,0-15.549,2.201-20.958,6.6c-5.411,4.401-8.116,9.604-8.116,15.607
		c0,9.931,5.855,14.895,17.569,14.895c8.562,0,16.143-4.072,22.742-12.219V75.094z"/>
	<path fill="#575757" d="M169.277,34.247l-8.383,11.951c-1.725-1.725-4.771-3.359-9.142-4.906c-4.37-1.545-8.666-2.318-12.887-2.318
		c-9.217,0-16.53,3.227-21.939,9.677c-5.411,6.452-8.116,15.296-8.116,26.532c0,11.18,2.765,19.696,8.294,25.552
		c5.53,5.857,13.2,8.785,23.01,8.785c7.61,0,15.28-2.943,23.01-8.83l6.688,14.271c-9.097,5.886-20.365,8.829-33.801,8.829
		c-13.021,0-23.783-4.37-32.285-13.11c-8.503-8.74-12.753-20.57-12.753-35.496c0-15.22,4.414-27.438,13.244-36.654
		c8.83-9.216,20.914-13.824,36.254-13.824c4.935,0,10.286,1.041,16.053,3.122C162.29,29.907,166.542,32.048,169.277,34.247z"/>
	<path fill="#575757" d="M256.058,34.247l-8.383,11.951c-1.725-1.725-4.771-3.359-9.142-4.906c-4.37-1.545-8.666-2.318-12.887-2.318
		c-9.217,0-16.53,3.227-21.939,9.677c-5.411,6.452-8.116,15.296-8.116,26.532c0,11.18,2.765,19.696,8.294,25.552
		c5.53,5.857,13.2,8.785,23.01,8.785c7.61,0,15.28-2.943,23.01-8.83l6.688,14.271c-9.097,5.886-20.365,8.829-33.801,8.829
		c-13.021,0-23.783-4.37-32.285-13.11c-8.503-8.74-12.754-20.57-12.754-35.496c0-15.22,4.415-27.438,13.244-36.654
		c8.83-9.216,20.914-13.824,36.254-13.824c4.935,0,10.286,1.041,16.053,3.122C249.071,29.907,253.323,32.048,256.058,34.247z"/>
	<path fill="#575757" d="M264.534,74.023c0-14.745,3.969-26.651,11.906-35.719c7.938-9.065,18.386-13.601,31.349-13.601
		c13.675,0,24.288,4.355,31.839,13.066c7.55,8.71,11.327,20.795,11.327,36.253c0,15.399-3.865,27.544-11.594,36.433
		c-7.73,8.889-18.254,13.333-31.572,13.333c-13.616,0-24.229-4.488-31.839-13.467C268.339,101.345,264.534,89.245,264.534,74.023z
		 M282.372,74.023c0,23.962,8.473,35.941,25.417,35.941c7.907,0,14.105-3.21,18.595-9.632c4.489-6.421,6.733-15.19,6.733-26.31
		c0-23.663-8.443-35.495-25.329-35.495c-7.729,0-13.899,3.152-18.506,9.453C284.675,54.284,282.372,62.965,282.372,74.023z"/>
	<path fill="#575757" d="M381.192,26.488v60.913c0,14.746,6.391,22.118,19.175,22.118c5.588,0,10.703-1.605,15.34-4.816
		c4.638-3.211,7.699-6.926,9.187-11.148V26.488h16.944v95.517h-16.944v-13.199c-1.903,3.746-5.724,7.18-11.46,10.301
		c-5.739,3.122-11.342,4.683-16.813,4.683c-10.465,0-18.477-3.002-24.035-9.008c-5.561-6.005-8.339-14.537-8.339-25.597V26.488
		H381.192z"/>
	<path fill="#575757" d="M520.057,122.005V66.442c0-10.166-1.531-17.286-4.592-21.359c-3.063-4.072-8.191-6.109-15.385-6.109
		c-3.865,0-7.908,1.16-12.129,3.479c-4.223,2.318-7.463,5.173-9.722,8.562v70.991h-16.945V26.488h11.595l5.351,12.308
		c5.588-9.395,14.716-14.092,27.38-14.092c20.928,0,31.393,12.725,31.393,38.172v59.129H520.057z"/>
	<path fill="#575757" d="M563.494,39.866h-11.059V26.488h11.059V6.511L580.439,0v26.488h26.221v13.378h-26.221v47.446
		c0,8.026,1.352,13.734,4.059,17.123c2.704,3.389,7.059,5.084,13.064,5.084c4.34,0,8.83-1.1,13.467-3.3l2.498,14.894
		c-7.018,1.784-14.716,2.676-23.1,2.676c-7.551,0-13.928-2.81-19.13-8.429c-5.203-5.618-7.804-12.708-7.804-21.271V39.866z"/>
	<path fill="#575757" d="M619.951,116.297l5.977-16.053c9.453,6.185,17.063,9.275,22.831,9.275c10.464,0,15.696-4.399,15.696-13.2
		c0-6.301-5.055-11.712-15.161-16.23c-7.79-3.568-13.036-6.273-15.741-8.117c-2.707-1.842-5.055-3.938-7.046-6.287
		c-1.993-2.348-3.478-4.846-4.459-7.491s-1.472-5.485-1.472-8.517c0-7.85,2.854-13.973,8.562-18.373
		c5.708-4.399,13.169-6.6,22.386-6.6c6.957,0,15.727,2.2,26.31,6.6l-4.815,15.697c-6.721-5.352-13.467-8.027-20.246-8.027
		c-4.043,0-7.446,0.952-10.211,2.854c-2.766,1.904-4.147,4.313-4.147,7.225c0,6.125,3.479,10.762,10.435,13.913l12.129,5.529
		c7.432,3.39,12.844,7.255,16.232,11.595s5.084,9.78,5.084,16.32c0,8.562-3.004,15.266-9.008,20.111
		c-6.006,4.847-14.33,7.269-24.973,7.269C638.264,123.789,628.811,121.292,619.951,116.297z"/>
</g>
</svg>
