<?xml version="1.0" encoding="utf-8"?>
<!-- Generator: Adobe Illustrator 15.1.0, SVG Export Plug-In . SVG Version: 6.00 Build 0)  -->
<!DOCTYPE svg PUBLIC "-//W3C//DTD SVG 1.1//EN" "http://www.w3.org/Graphics/SVG/1.1/DTD/svg11.dtd">
<svg version="1.1" id="Layer_1" xmlns="http://www.w3.org/2000/svg" xmlns:xlink="http://www.w3.org/1999/xlink" x="0px" y="0px"
	 width="86.398px" height="44.206px" viewBox="0 0 86.398 44.206" enable-background="new 0 0 86.398 44.206" xml:space="preserve">
<g>
	<g>
		<linearGradient id="SVGID_1_" gradientUnits="userSpaceOnUse" x1="10.0796" y1="39.9771" x2="10.0796" y2="7.9832">
			<stop  offset="0" style="stop-color:#FFFFFF;stop-opacity:0"/>
			<stop  offset="0.9104" style="stop-color:#FFFFFF;stop-opacity:0.9104"/>
			<stop  offset="1" style="stop-color:#FFFFFF"/>
		</linearGradient>
		<polygon fill="url(#SVGID_1_)" points="10.124,30.787 10.038,30.787 5.628,44.206 -0.012,44.206 7.426,24.361 12.857,24.361 
			20.171,44.206 14.532,44.206 		"/>
		<linearGradient id="SVGID_2_" gradientUnits="userSpaceOnUse" x1="32.5518" y1="39.9771" x2="32.5518" y2="7.986">
			<stop  offset="0" style="stop-color:#FFFFFF;stop-opacity:0"/>
			<stop  offset="0.9104" style="stop-color:#FFFFFF;stop-opacity:0.9104"/>
			<stop  offset="1" style="stop-color:#FFFFFF"/>
		</linearGradient>
		<path fill="url(#SVGID_2_)" d="M40.478,41.731c1.797-1.974,2.696-4.379,2.696-7.215c0-2.833-0.899-5.239-2.737-7.212
			c-1.8-1.975-4.088-2.943-6.864-2.943c-2.657,0-4.74,0.791-6.292,2.332v-8.072h-5.352v25.585h5.352v-1.614h0.081
			c1.756,1.401,3.84,2.08,6.292,2.08C36.391,44.671,38.68,43.705,40.478,41.731z M37.576,34.516c0,1.653-0.367,2.979-1.104,3.986
			c-0.939,1.255-2.287,1.9-4.126,1.9c-1.836,0-3.228-0.646-4.124-1.9c-0.736-1.007-1.147-2.333-1.147-3.986
			c0-1.614,0.411-2.94,1.147-3.981c0.896-1.258,2.288-1.871,4.124-1.871c1.839,0,3.187,0.613,4.126,1.871
			C37.208,31.576,37.576,32.902,37.576,34.516z"/>
		<linearGradient id="SVGID_3_" gradientUnits="userSpaceOnUse" x1="54.2056" y1="39.9771" x2="54.2056" y2="7.9843">
			<stop  offset="0" style="stop-color:#FFFFFF;stop-opacity:0"/>
			<stop  offset="0.9104" style="stop-color:#FFFFFF;stop-opacity:0.9104"/>
			<stop  offset="1" style="stop-color:#FFFFFF"/>
		</linearGradient>
		<path fill="url(#SVGID_3_)" d="M60.863,35.669c-0.814,0.319-3.062,0.786-6.699,1.396c-2.412,0.396-3.599,1.038-3.599,1.9
			c0,1.295,1.35,1.905,4.049,1.868c2.777,0,4.616-0.936,5.555-2.73l3.676,3.051c-2.121,2.369-5.188,3.517-9.109,3.517
			c-2.901,0-5.231-0.503-6.946-1.47c-1.879-1.114-2.817-2.726-2.817-4.807c0-2.12,1.185-3.664,3.514-4.597
			c0.897-0.322,3.063-0.826,6.617-1.471c2.33-0.396,3.514-1.041,3.514-1.865c0-0.578-0.369-1.076-1.184-1.545
			c-0.859-0.463-1.879-0.715-3.106-0.715c-2.981,0-5.104,0.789-6.373,2.4l-4.002-2.725c2.369-2.33,5.921-3.518,10.702-3.518
			c2.738,0,5.027,0.537,6.824,1.65c1.999,1.221,2.984,2.943,2.984,5.131C64.461,33.222,63.275,34.77,60.863,35.669z"/>
		<linearGradient id="SVGID_4_" gradientUnits="userSpaceOnUse" x1="76.3872" y1="39.9771" x2="76.3872" y2="7.9843">
			<stop  offset="0" style="stop-color:#FFFFFF;stop-opacity:0"/>
			<stop  offset="0.9104" style="stop-color:#FFFFFF;stop-opacity:0.9104"/>
			<stop  offset="1" style="stop-color:#FFFFFF"/>
		</linearGradient>
		<path fill="url(#SVGID_4_)" d="M86.398,38.322V28.093v-3.732h-5.31v2.223c-2.086-1.471-4.496-2.223-7.19-2.223
			c-2.169,0-3.967,0.537-5.396,1.65s-2.125,2.619-2.125,4.451c0,3.265,2.248,5.275,6.702,6.066l2.248,0.356
			c1.467,0.249,3.39,0.647,5.761,1.148v0.576c0,1.651-1.393,2.474-4.211,2.474c-1.511,0-2.615-0.212-3.185-0.646
			c-0.613-0.428-0.9-1.185-0.9-2.26l-5.351,0.181c0,2.118,0.982,3.729,2.898,4.88c1.678,0.968,3.883,1.434,6.537,1.434
			c2.901,0,5.065-0.356,6.58-1.111C85.418,42.591,86.398,40.834,86.398,38.322z M81.088,34.516
			c-0.574-0.249-1.432-0.469-2.535-0.682l-2.939-0.54c-1.228-0.215-2.086-0.5-2.577-0.787c-0.733-0.432-1.101-1.039-1.101-1.904
			c0-0.719,0.367-1.289,1.022-1.723c0.649-0.465,1.471-0.678,2.448-0.678c1.432,0,2.699,0.285,3.762,0.822
			c1.263,0.684,1.92,1.578,1.92,2.73V34.516z"/>
	</g>
	<g>
		<polygon fill="#FFFFFF" points="10.124,15.958 10.038,15.958 5.628,0.679 -0.012,0.679 7.426,23.271 12.857,23.271 20.171,0.679 
			14.532,0.679 		"/>
		<path fill="#FFFFFF" d="M33.654,0.146c-2.452,0-4.536,0.775-6.292,2.372h-0.081V0.679h-5.352v29.127h5.352v-9.191
			c1.551,1.758,3.634,2.656,6.292,2.656c2.776,0,5.064-1.104,6.864-3.352c1.838-2.247,2.737-4.982,2.737-8.211
			c0-3.227-0.899-5.964-2.696-8.211S36.391,0.146,33.654,0.146z M36.472,16.242c-0.939,1.431-2.287,2.127-4.126,2.127
			c-1.836,0-3.228-0.696-4.124-2.127c-0.736-1.183-1.147-2.696-1.147-4.533c0-1.881,0.411-3.39,1.147-4.532
			c0.896-1.432,2.288-2.167,4.124-2.167c1.839,0,3.187,0.735,4.126,2.167c0.736,1.143,1.104,2.651,1.104,4.532
			C37.576,13.545,37.208,15.059,36.472,16.242z"/>
		<path fill="#FFFFFF" d="M60.863,10.399c-0.814-0.363-3.062-0.896-6.699-1.587c-2.412-0.452-3.599-1.187-3.599-2.169
			c0-1.47,1.35-2.163,4.049-2.124c2.777,0,4.616,1.062,5.555,3.106l3.676-3.474c-2.121-2.698-5.188-4.006-9.109-4.006
			c-2.901,0-5.231,0.572-6.946,1.676c-1.879,1.268-2.817,3.104-2.817,5.474c0,2.41,1.185,4.169,3.514,5.231
			c0.897,0.368,3.063,0.94,6.617,1.675c2.33,0.447,3.514,1.185,3.514,2.123c0,0.654-0.369,1.226-1.184,1.759
			c-0.859,0.529-1.879,0.818-3.106,0.818c-2.981,0-5.104-0.902-6.373-2.738l-4.002,3.105c2.369,2.654,5.921,4.002,10.702,4.002
			c2.738,0,5.027-0.615,6.824-1.881c1.999-1.387,2.984-3.349,2.984-5.843C64.461,13.179,63.275,11.422,60.863,10.399z"/>
		<path fill="#FFFFFF" d="M83.458,1.412c-1.515-0.854-3.679-1.266-6.58-1.266c-2.654,0-4.859,0.533-6.537,1.635
			c-1.916,1.309-2.898,3.146-2.898,5.557l5.351,0.205c0-1.227,0.287-2.084,0.9-2.574c0.569-0.488,1.674-0.735,3.185-0.735
			c2.818,0,4.211,0.94,4.211,2.821v0.654c-2.371,0.566-4.294,1.018-5.761,1.304l-2.248,0.41c-4.454,0.896-6.702,3.185-6.702,6.902
			c0,2.083,0.696,3.804,2.125,5.065c1.429,1.266,3.227,1.881,5.396,1.881c2.694,0,5.104-0.859,7.19-2.533v2.533h5.31v-4.25V7.381
			C86.398,4.519,85.418,2.518,83.458,1.412z M81.088,14.854c0,1.31-0.657,2.33-1.92,3.102c-1.063,0.616-2.33,0.946-3.762,0.946
			c-0.978,0-1.799-0.246-2.448-0.779c-0.655-0.489-1.022-1.144-1.022-1.959c0-0.982,0.367-1.676,1.101-2.169
			c0.491-0.327,1.35-0.652,2.577-0.896l2.939-0.613c1.104-0.244,1.961-0.488,2.535-0.776V14.854z"/>
	</g>
	<path fill="none" d="M36.451,7.176c-0.938-1.432-2.29-2.167-4.127-2.167c-1.834,0-3.227,0.735-4.124,2.167
		c-0.735,1.143-1.143,2.651-1.143,4.532c0,0.579,0.042,1.118,0.122,1.632c3.208,0.757,6.475,1.382,9.825,1.743
		c0.36-0.967,0.552-2.086,0.552-3.375C37.555,9.828,37.187,8.319,36.451,7.176z"/>
	<g>
		<linearGradient id="SVGID_5_" gradientUnits="userSpaceOnUse" x1="16.0728" y1="-1.293" x2="16.0728" y2="28.7207">
			<stop  offset="0" style="stop-color:#333333;stop-opacity:0"/>
			<stop  offset="0.2418" style="stop-color:#353535;stop-opacity:0.2418"/>
			<stop  offset="0.436" style="stop-color:#3A3A3A;stop-opacity:0.436"/>
			<stop  offset="0.6137" style="stop-color:#434242;stop-opacity:0.6137"/>
			<stop  offset="0.7815" style="stop-color:#4F4F4F;stop-opacity:0.7815"/>
			<stop  offset="0.9409" style="stop-color:#606060;stop-opacity:0.9409"/>
			<stop  offset="1" style="stop-color:#676767"/>
		</linearGradient>
		<path fill="url(#SVGID_5_)" d="M11.996,9.388c1.725,0.364,3.382,0.774,4.946,1.206l3.208-9.915h-5.639L11.996,9.388z"/>
		<g>
			<linearGradient id="SVGID_6_" gradientUnits="userSpaceOnUse" x1="3.9385" y1="-1.293" x2="3.9385" y2="28.7218">
				<stop  offset="0" style="stop-color:#333333;stop-opacity:0"/>
				<stop  offset="0.2418" style="stop-color:#353535;stop-opacity:0.2418"/>
				<stop  offset="0.436" style="stop-color:#3A3A3A;stop-opacity:0.436"/>
				<stop  offset="0.6137" style="stop-color:#434242;stop-opacity:0.6137"/>
				<stop  offset="0.7815" style="stop-color:#4F4F4F;stop-opacity:0.7815"/>
				<stop  offset="0.9409" style="stop-color:#606060;stop-opacity:0.9409"/>
				<stop  offset="1" style="stop-color:#676767"/>
			</linearGradient>
			<path fill="url(#SVGID_6_)" d="M-0.032,0.679l2.442,7.419c1.837,0.091,3.682,0.279,5.498,0.553L5.606,0.679H-0.032z"/>
			<linearGradient id="SVGID_7_" gradientUnits="userSpaceOnUse" x1="32.5313" y1="-1.2944" x2="32.5313" y2="28.7232">
				<stop  offset="0" style="stop-color:#333333;stop-opacity:0"/>
				<stop  offset="0.2418" style="stop-color:#353535;stop-opacity:0.2418"/>
				<stop  offset="0.436" style="stop-color:#3A3A3A;stop-opacity:0.436"/>
				<stop  offset="0.6137" style="stop-color:#434242;stop-opacity:0.6137"/>
				<stop  offset="0.7815" style="stop-color:#4F4F4F;stop-opacity:0.7815"/>
				<stop  offset="0.9409" style="stop-color:#606060;stop-opacity:0.9409"/>
				<stop  offset="1" style="stop-color:#676767"/>
			</linearGradient>
			<path fill="url(#SVGID_7_)" d="M33.633,0.146c-2.452,0-4.536,0.775-6.292,2.372H27.26V0.679h-5.352v11.306
				c1.742,0.476,3.494,0.935,5.271,1.355c-0.08-0.514-0.122-1.053-0.122-1.632c0-1.881,0.408-3.39,1.143-4.532
				c0.897-1.432,2.29-2.167,4.124-2.167c1.838,0,3.189,0.735,4.127,2.167c0.735,1.143,1.104,2.651,1.104,4.532
				c0,1.289-0.191,2.408-0.552,3.375c1.866,0.203,3.764,0.317,5.689,0.33c0.3-1.155,0.461-2.387,0.461-3.705
				c0-3.227-0.901-5.964-2.698-8.211C38.659,1.25,36.372,0.146,33.633,0.146z"/>
			<linearGradient id="SVGID_8_" gradientUnits="userSpaceOnUse" x1="54.3862" y1="-1.2944" x2="54.3862" y2="28.7232">
				<stop  offset="0" style="stop-color:#333333;stop-opacity:0"/>
				<stop  offset="0.2418" style="stop-color:#353535;stop-opacity:0.2418"/>
				<stop  offset="0.436" style="stop-color:#3A3A3A;stop-opacity:0.436"/>
				<stop  offset="0.6137" style="stop-color:#434242;stop-opacity:0.6137"/>
				<stop  offset="0.7815" style="stop-color:#4F4F4F;stop-opacity:0.7815"/>
				<stop  offset="0.9409" style="stop-color:#606060;stop-opacity:0.9409"/>
				<stop  offset="1" style="stop-color:#676767"/>
			</linearGradient>
			<path fill="url(#SVGID_8_)" d="M54.592,4.519c2.775,0,4.615,1.062,5.557,3.106l3.676-3.474c-2.121-2.698-5.188-4.006-9.109-4.006
				c-2.901,0-5.229,0.572-6.945,1.676c-1.879,1.268-2.822,3.104-2.822,5.474c0,2.41,1.187,4.169,3.517,5.231
				c0.884,0.358,2.997,0.921,6.448,1.639c2.917-0.513,5.789-1.109,8.607-1.727c-0.596-0.848-1.487-1.531-2.677-2.04
				c-0.818-0.363-3.066-0.896-6.702-1.587c-2.409-0.452-3.594-1.187-3.594-2.169C50.547,5.173,51.895,4.48,54.592,4.519z"/>
			<linearGradient id="SVGID_9_" gradientUnits="userSpaceOnUse" x1="76.9009" y1="-1.2944" x2="76.9009" y2="28.7235">
				<stop  offset="0" style="stop-color:#333333;stop-opacity:0"/>
				<stop  offset="0.2418" style="stop-color:#353535;stop-opacity:0.2418"/>
				<stop  offset="0.436" style="stop-color:#3A3A3A;stop-opacity:0.436"/>
				<stop  offset="0.6137" style="stop-color:#434242;stop-opacity:0.6137"/>
				<stop  offset="0.7815" style="stop-color:#4F4F4F;stop-opacity:0.7815"/>
				<stop  offset="0.9409" style="stop-color:#606060;stop-opacity:0.9409"/>
				<stop  offset="1" style="stop-color:#676767"/>
			</linearGradient>
			<path fill="url(#SVGID_9_)" d="M83.438,1.412c-1.515-0.854-3.679-1.266-6.58-1.266c-2.654,0-4.86,0.533-6.537,1.635
				c-1.92,1.309-2.898,3.146-2.898,5.557l5.35,0.205c0-1.227,0.287-2.084,0.9-2.574c0.57-0.488,1.675-0.735,3.186-0.735
				c2.82,0,4.211,0.94,4.211,2.821v0.654C78.7,8.275,76.78,8.726,75.305,9.012l-2.246,0.41c-1.891,0.381-3.385,1.016-4.475,1.9
				c5.899-1.295,11.791-2.447,17.794-3.518V7.381C86.378,4.519,85.397,2.518,83.438,1.412z"/>
		</g>
	</g>
</g>
</svg>
